<svg viewBox="0 0 256 256" xmlns="http://www.w3.org/2000/svg">
  
  <path d="M71.2861,182 C66.7068,195.791,63.8629,211.427,63.167,228 H32.2979 C33.5513,211.171,38.726,195.501,46.8604,182 H71.2861 Z M124,182 V228 H71.1758 C71.9135,211.171,74.9598,195.501,79.7471,182 H124 Z M209.14,182 C217.274,195.501,222.449,211.171,223.702,228 H191.833 C191.137,211.427,188.293,195.791,183.714,182 H209.14 Z M175.253,182 C180.04,195.501,183.087,211.171,183.824,228 H132 V182 H175.253 Z M158.782,140.305 C176.767,146.706,192.362,158.561,203.788,174 H180.779 C178.875,169.278,176.753,164.823,174.434,160.677 170.054,152.848,164.796,145.859,158.782,140.305 Z M132,135.316 C148.286,137.611,162.629,152.249,172.104,174 H132 V135.316 Z M95.5742,140.907 C89.8285,146.361,84.7887,153.129,80.5664,160.677 78.247,164.823,76.1253,169.278,74.2207,174 H52.2129 C63.2899,159.034,78.2833,147.434,95.5742,140.907 Z M124,174 H82.8965 C92.5643,151.805,107.302,137.015,124,135.19 V174 Z"
    fill="#cc5848"
    fill-rule="evenodd"
  />
  <path d="M136,92 H152 L128,128 104,92 H120 V36 H136 V92 Z M112,84 H100 L67,36 H112 V84 Z M156,84 H144 V36 H189 L156,84 Z"
    fill="#ededed"
    fill-rule="evenodd"
  />
</svg>
